<?xml version="1.0" encoding="UTF-8"?>
<svg width="80px" height="70px" viewBox="0 0 80 70" version="1.1" xmlns="http://www.w3.org/2000/svg" xmlns:xlink="http://www.w3.org/1999/xlink">
    <!-- Generator: Sketch 59.1 (86144) - https://sketch.com -->
    <title>mastercard</title>
    <desc>Created with Sketch.</desc>
    <g id="Page-1" stroke="none" stroke-width="1" fill="none" fill-rule="evenodd">
        <g id="mastercard" transform="translate(-1.000000, 0.000000)">
            <rect id="Rectangle" x="1" y="0" width="80" height="70"></rect>
            <path d="M18.2932156,65.8155655 L18.2932156,61.4205362 C18.3339135,60.6727917 18.1199373,59.9389053 17.7058764,59.4061053 C17.2918154,58.8733052 16.7177112,58.5931155 16.1300283,58.6370176 C15.3555579,58.5723725 14.6148362,59.0495379 14.1969673,59.8822759 C13.8159909,59.0743665 13.1184104,58.5965508 12.3789695,58.6370176 C11.7351436,58.5955776 11.1222276,58.9913409 10.7680854,59.6771745 L10.7680854,58.8128188 L9.57142857,58.8128188 L9.57142857,65.8155655 L10.7795917,65.8155655 L10.7795917,61.9625898 C10.7275592,61.4777376 10.848214,60.9886199 11.1086304,60.6287127 C11.3690469,60.2688056 11.7420427,60.075676 12.1258306,60.1020274 C12.9197663,60.1020274 13.3224874,60.7612818 13.3224874,61.9479397 L13.3224874,65.8448657 L14.5306505,65.8448657 L14.5306505,61.9625898 C14.4807531,61.478289 14.6021457,60.9907561 14.8620793,60.6315162 C15.1220129,60.2722763 15.4937078,60.0783402 15.8768894,60.1020274 C16.6938378,60.1020274 17.0850525,60.7612818 17.0850525,61.9479397 L17.0850525,65.8448657 L18.2932156,65.8155655 Z M36.1682765,58.8128188 L34.2006965,58.8128188 L34.2006965,56.6885546 L32.9925334,56.6885546 L32.9925334,58.8128188 L31.8994335,58.8128188 L31.8994335,60.2045781 L33.0155461,60.2045781 L33.0155461,63.4275996 C33.0155461,65.0537604 33.5103176,66.0206871 34.9255944,66.0206871 C35.4543433,66.0229283 35.9728461,65.8350339 36.4214154,65.4786133 L36.0762259,64.1747546 C35.7553167,64.418466 35.3911001,64.5545603 35.0176449,64.5703072 C34.4423292,64.5703072 34.2237092,64.1015041 34.2237092,63.3982994 L34.2237092,60.2045781 L36.1797828,60.2045781 L36.1682765,58.8128188 Z M46.3743782,58.6370176 C45.7800294,58.6147622 45.2237368,59.0082534 44.9245824,59.6625244 L44.9245824,58.8128188 L43.7394319,58.8128188 L43.7394319,65.8155655 L44.9360887,65.8155655 L44.9360887,61.8893393 C44.9360887,60.7319816 45.3273035,60.0873773 46.0867203,60.0873773 C46.3426691,60.0829197 46.5968039,60.1426557 46.8346308,60.2631785 L47.2028329,58.7981687 C46.9295417,58.6736897 46.6416152,58.609288 46.3513655,58.6077174 L46.3743782,58.6370176 Z M30.9444093,59.3695225 C30.2670469,58.8567522 29.4882563,58.6025026 28.7006778,58.6370176 C27.3084137,58.6370176 26.3994147,59.4867233 26.3994147,60.8784826 C26.3994147,62.0211902 27.066781,62.7243949 28.2979568,62.9441464 L28.8732725,63.046697 C29.5291325,63.1638978 29.839803,63.3836493 29.839803,63.7792019 C29.839803,64.3212555 29.402563,64.6289076 28.5856147,64.6289076 C27.9284904,64.6531258 27.2840797,64.3951138 26.7561105,63.8964027 L26.1807947,65.0830606 C26.8778553,65.7027529 27.7127581,66.0211444 28.562602,65.9913667 C30.1504735,65.9913667 31.0709788,65.0391103 31.0709788,63.7059514 C31.0709788,62.3727925 30.3460809,61.8307389 29.1494241,61.6109875 L28.5741083,61.5084368 C28.0563241,61.4205362 27.6420968,61.2886853 27.6420968,60.8198822 C27.6420968,60.351079 28.0333115,59.9994767 28.6891715,59.9994767 C29.2953677,60.0084426 29.889623,60.2152518 30.4151188,60.6001307 L30.9444093,59.3695225 Z M62.9952506,58.6370176 C62.4009019,58.6147622 61.8446093,59.0082534 61.5454549,59.6625244 L61.5454549,58.8128188 L60.3603044,58.8128188 L60.3603044,65.8155655 L61.5569612,65.8155655 L61.5569612,61.8893393 C61.5569612,60.7319816 61.948176,60.0873773 62.7075928,60.0873773 C62.9635416,60.0829197 63.2176764,60.1426557 63.4555033,60.2631785 L63.8237053,58.7981687 C63.5504142,58.6736897 63.2624877,58.609288 62.972238,58.6077174 L62.9952506,58.6370176 Z M47.5767881,62.2995421 C47.5480095,63.2946023 47.8498933,64.2590385 48.4083402,64.9561238 C48.966787,65.6532091 49.7300925,66.0184031 50.5108985,65.9620665 C51.2293981,66.0086098 51.935515,65.7106708 52.4899847,65.1270109 L51.914669,63.8964027 C51.5010002,64.2980433 50.9965701,64.5189779 50.4763796,64.5263569 C49.5591541,64.4318662 48.8526017,63.4565404 48.8526017,62.284892 C48.8526017,61.1132435 49.5591541,60.1379177 50.4763796,60.043427 C50.9965701,60.050806 51.5010002,60.2717406 51.914669,60.6733812 L52.4899847,59.442773 C51.935515,58.8591131 51.2293981,58.5611742 50.5108985,58.6077174 C49.7300925,58.5513808 48.966787,58.9165748 48.4083402,59.6136601 C47.8498933,60.3107454 47.5480095,61.2751816 47.5767881,62.2702419 L47.5767881,62.2995421 Z M58.7839392,62.2995421 L58.7839392,58.8128188 L57.5872824,58.8128188 L57.5872824,59.6625244 C57.1750131,58.9871183 56.532715,58.6054838 55.8613351,58.6370176 C54.2726445,58.6370176 52.9847563,60.2767857 52.9847563,62.2995421 C52.9847563,64.3222984 54.2726445,65.9620665 55.8613351,65.9620665 C56.532715,65.9936003 57.1750131,65.6119658 57.5872824,64.9365597 L57.5872824,65.7862653 L58.7839392,65.7862653 L58.7839392,62.2995421 Z M54.3309952,62.2995421 C54.384209,61.1499991 55.1493485,60.2654554 56.05314,60.3086469 C56.9569315,60.3518384 57.6678394,61.3069213 57.6532228,62.4583087 C57.6386061,63.6096962 56.9038267,64.5350275 55.9994109,64.541007 C55.5388931,64.548426 55.0968696,64.3106181 54.780065,63.8850009 C54.4632604,63.4593837 54.3004687,62.884641 54.3309952,62.2995421 L54.3309952,62.2995421 Z M39.8905695,58.6370176 C38.3018788,58.6653362 37.0320211,60.328061 37.0542627,62.3508174 C37.0765044,64.3735738 38.3824231,65.9903851 39.9711137,65.9620665 C40.7988431,66.0161612 41.6128379,65.6767871 42.2551173,65.0098101 L41.6798015,63.8817526 C41.2255103,64.3456323 40.6627018,64.603395 40.0804237,64.6142575 C39.2579329,64.7043191 38.5285556,63.9445068 38.4350206,62.9001961 L42.5197625,62.9001961 C42.5197625,62.7097448 42.5197625,62.5192935 42.5197625,62.3141921 C42.5197625,60.1166775 41.4496752,58.6516677 39.9078289,58.6516677 L39.8905695,58.6370176 Z M39.8905695,59.9994767 C40.2522147,59.9896599 40.6021027,60.1632133 40.8632207,60.4819365 C41.1243387,60.8006597 41.2752844,61.2384289 41.2828336,61.698888 L38.4062548,61.698888 C38.4495924,60.7208646 39.0986348,59.9660652 39.8675568,59.9994767 L39.8905695,59.9994767 Z M69.8702741,62.3141921 L69.8702741,56 L68.7196425,56 L68.7196425,59.6625244 C68.3073732,58.9871183 67.6650751,58.6054838 66.9936952,58.6370176 C65.4050046,58.6370176 64.1171164,60.2767857 64.1171164,62.2995421 C64.1171164,64.3222984 65.4050046,65.9620665 66.9936952,65.9620665 C67.6650751,65.9936003 68.3073732,65.6119658 68.7196425,64.9365597 L68.7196425,65.7862653 L69.8702741,65.7862653 L69.8702741,62.3141921 Z M71.8666198,64.7973837 C71.9414182,64.7962169 72.0156776,64.8136338 72.0852398,64.8486591 C72.1513106,64.8829872 72.2117889,64.9326661 72.2635876,64.99516 C72.3141402,65.0583176 72.3550989,65.132817 72.384404,65.2149115 C72.4432939,65.3878173 72.4432939,65.5840593 72.384404,65.7569651 C72.3550989,65.8390596 72.3141402,65.913559 72.2635876,65.9767166 C72.2117889,66.0392106 72.1513106,66.0888894 72.0852398,66.1232176 C72.0163643,66.1619123 71.9419023,66.1818716 71.8666198,66.1818181 C71.6440011,66.1796815 71.4423317,66.0142075 71.3488356,65.7569651 C71.2906275,65.5838803 71.2906275,65.3879964 71.3488356,65.2149115 C71.3781406,65.132817 71.4190994,65.0583176 71.4696519,64.99516 C71.5214507,64.9326661 71.5819289,64.8829872 71.6479998,64.8486591 C71.7229346,64.8107068 71.8032992,64.7932372 71.8838792,64.7973837 L71.8666198,64.7973837 Z M71.8666198,66.035317 C71.9240417,66.0357611 71.980892,66.0207853 72.0334613,65.9913667 C72.0829594,65.9632294 72.1278501,65.9234688 72.165784,65.8741659 C72.3149616,65.666935 72.3149616,65.3488919 72.165784,65.141661 C72.1279405,65.0922221 72.0830281,65.0524423 72.0334613,65.0244602 C71.9808402,64.995249 71.9240247,64.9802823 71.8666198,64.9805074 C71.8092644,64.9808959 71.7525451,64.9958372 71.6997782,65.0244602 C71.6480887,65.0514457 71.6011473,65.0912903 71.5617024,65.141661 C71.4125248,65.3488919 71.4125248,65.666935 71.5617024,65.8741659 C71.6012442,65.9243861 71.6481605,65.9642094 71.6997782,65.9913667 C71.7578217,66.0232365 71.8207106,66.0382499 71.8838792,66.035317 L71.8666198,66.035317 Z M71.9011387,65.1636362 C71.9548452,65.1603201 72.0077682,65.1810532 72.0507208,65.2222366 C72.0864493,65.2598844 72.1057276,65.3171573 72.1024992,65.3760626 C72.1041693,65.4252541 72.0895607,65.4730829 72.0622271,65.5079135 C72.0288807,65.5464769 71.986341,65.5696894 71.9414108,65.5738389 L72.1082524,65.8155655 L71.9759298,65.8155655 L71.8205945,65.5738389 L71.7688161,65.5738389 L71.7688161,65.8155655 L71.6595061,65.8155655 L71.6595061,65.1709612 L71.9011387,65.1636362 Z M71.7745692,65.288162 L71.7745692,65.4639632 L71.9011387,65.4639632 C71.9236615,65.4725129 71.9476538,65.4725129 71.9701766,65.4639632 C71.9783823,65.4432298 71.9783823,65.4187711 71.9701766,65.3980377 C71.9783823,65.3773044 71.9783823,65.3528457 71.9701766,65.3321123 C71.9476538,65.3235626 71.9236615,65.3235626 71.9011387,65.3321123 L71.7745692,65.288162 Z M65.4460958,62.3141921 C65.4993096,61.1646492 66.2644491,60.2801055 67.1682406,60.323297 C68.0720321,60.3664885 68.7829401,61.3215714 68.7683234,62.4729588 C68.7537067,63.6243463 68.0189273,64.5496776 67.1145115,64.5556571 C66.6539938,64.5630761 66.2119702,64.3252682 65.8951656,63.899651 C65.578361,63.4740338 65.4155693,62.8992911 65.4460958,62.3141921 L65.4460958,62.3141921 Z M25.0416695,62.3141921 L25.0416695,58.8128188 L23.8450127,58.8128188 L23.8450127,59.6625244 C23.4327434,58.9871183 22.7904453,58.6054838 22.1190654,58.6370176 C20.5303748,58.6370176 19.2424866,60.2767857 19.2424866,62.2995421 C19.2424866,64.3222984 20.5303748,65.9620665 22.1190654,65.9620665 C22.7904453,65.9936003 23.4327434,65.6119658 23.8450127,64.9365597 L23.8450127,65.7862653 L25.0416695,65.7862653 L25.0416695,62.3141921 Z M20.5887255,62.3141921 C20.6419393,61.1646492 21.4070788,60.2801055 22.3108703,60.323297 C23.2146618,60.3664885 23.9255697,61.3215714 23.9109531,62.4729588 C23.8963364,63.6243463 23.1615569,64.5496776 22.2571412,64.5556571 C21.7946388,64.5672177 21.349538,64.3312227 21.0301818,63.9051162 C20.7108256,63.4790097 20.5465055,62.9018744 20.5772192,62.3141921 L20.5887255,62.3141921 Z" id="Shape" fill="#FFFFFF" fill-rule="nonzero"></path>
            <g id="_Group_" transform="translate(0.285714, 4.454545)" fill-rule="nonzero">
                <rect id="Rectangle" fill="#FF5F00" x="29.7142857" y="5.54545455" width="21" height="37"></rect>
                <path d="M30.5074405,24.0487184 C30.4995545,16.836611 33.8947854,10.0217517 39.7142857,5.56886889 C29.8310155,-2.00320095 15.638243,-0.900263496 7.11026741,8.10256645 C-1.41770819,17.1053964 -1.41770819,30.9855127 7.11026741,39.9883426 C15.638243,48.9911726 29.8310155,50.09411 39.7142857,42.5220402 C33.8966367,38.070571 30.5016133,31.2585351 30.5074405,24.0487184 L30.5074405,24.0487184 Z" id="_Path_" fill="#EB001B"></path>
                <path d="M79.7142857,24.048718 C79.7142857,33.0450878 74.4447134,41.2516223 66.1441305,45.1829747 C57.8435475,49.1143272 47.9690153,48.0802969 40.7142857,42.5200406 C46.5288679,38.0652744 49.9238383,31.2548813 49.9238383,24.0454545 C49.9238383,16.8360278 46.5288679,10.0256347 40.7142857,5.57086849 C47.9690153,0.0106121559 57.8435475,-1.02341809 66.1441305,2.90793436 C74.4447134,6.83928681 79.7142857,15.0458213 79.7142857,24.0421911 L79.7142857,24.048718 Z" id="Path" fill="#F79E1B"></path>
                <path d="M77.1895332,38.5383623 L77.1895332,37.7156673 L77.4997643,37.7156673 L77.4997643,37.5454545 L76.7142857,37.5454545 L76.7142857,37.7156673 L77.0509194,37.7156673 L77.0509194,38.5383623 L77.1895332,38.5383623 Z M78.7142857,38.5383623 L78.7142857,37.5454545 L78.476662,37.5454545 L78.1994342,38.2546744 L77.9222065,37.5454545 L77.7109854,37.5454545 L77.7109854,38.5383623 L77.8826025,38.5383623 L77.8826025,37.7936815 L78.1400283,38.4390716 L78.3182461,38.4390716 L78.5756719,37.7936815 L78.5756719,38.5454545 L78.7142857,38.5383623 Z" id="Shape" fill="#F79E1B"></path>
            </g>
        </g>
    </g>
</svg>