<?xml version="1.0" encoding="UTF-8"?>
<svg width="80px" height="70px" viewBox="0 0 80 70" version="1.1" xmlns="http://www.w3.org/2000/svg" xmlns:xlink="http://www.w3.org/1999/xlink">
    <!-- Generator: Sketch 59.1 (86144) - https://sketch.com -->
    <title>mir</title>
    <desc>Created with Sketch.</desc>
    <defs>
        <linearGradient x1="-0.18041958%" y1="50%" x2="100%" y2="50%" id="linearGradient-1">
            <stop stop-color="#00B4E6" offset="0%"></stop>
            <stop stop-color="#088CCB" offset="100%"></stop>
        </linearGradient>
    </defs>
    <g id="Page-1" stroke="none" stroke-width="1" fill="none" fill-rule="evenodd">
        <g id="mir" transform="translate(0.000000, -8.000000)">
            <rect id="Rectangle" fill-opacity="0" fill="#D8D8D8" x="0" y="0" width="80" height="70"></rect>
            <path d="M71.8177061,19.0909091 L56.5986395,19.0909091 C57.4168688,26.2644628 62.3262452,32.9752066 67.7265592,32.9752066 L79.8363541,32.9752066 C80,32.2809917 80,31.3553719 80,30.661157 C80,24.1818182 76.3997907,19.0909091 71.8177061,19.0909091 Z" id="path10" fill="url(#linearGradient-1)"></path>
            <path d="M57.6870748,34.1322314 L57.6870748,50.9090909 L65.1082251,50.9090909 L65.1082251,41.9614325 L71.7048031,41.9614325 C75.332921,41.9614325 78.4662956,38.6060606 79.4557823,34.1322314 L57.6870748,34.1322314 Z" id="path12" fill="#4DB45F"></path>
            <path d="M31.0204082,19.0909091 L31.0204082,50.9090909 L37.5510204,50.9090909 C37.5510204,50.9090909 39.1836735,50.9090909 40,48.6363636 C44.4081633,36.3636364 45.7142857,32.7272727 45.7142857,32.7272727 L46.5306122,32.7272727 L46.5306122,50.9090909 L53.877551,50.9090909 L53.877551,19.0909091 L47.3469388,19.0909091 C47.3469388,19.0909091 45.7142857,19.3181818 44.8979592,21.3636364 C41.1428571,31.8181818 39.1836735,37.2727273 39.1836735,37.2727273 L38.3673469,37.2727273 L38.3673469,19.0909091 L31.0204082,19.0909091 Z" id="path14" fill="#4DB45F"></path>
            <path d="M0,50.9090909 L0,19.0909091 L7.34693878,19.0909091 C7.34693878,19.0909091 9.46938776,19.0909091 10.6122449,23.6363636 C13.5510204,35.6818182 13.877551,37.2727273 13.877551,37.2727273 C13.877551,37.2727273 14.5306122,34.3181818 17.1428571,23.6363636 C18.2857143,19.0909091 20.4081633,19.0909091 20.4081633,19.0909091 L27.755102,19.0909091 L27.755102,50.9090909 L20.4081633,50.9090909 L20.4081633,33.8636364 L19.5918367,33.8636364 L15.5102041,50.9090909 L12.244898,50.9090909 L8.16326531,33.8636364 L7.34693878,33.8636364 L7.34693878,50.9090909 L0,50.9090909 Z" id="path16" fill="#4DB45F"></path>
        </g>
    </g>
</svg>