<?xml version="1.0" encoding="UTF-8"?>
<svg width="80px" height="70px" viewBox="0 0 80 70" version="1.1" xmlns="http://www.w3.org/2000/svg" xmlns:xlink="http://www.w3.org/1999/xlink">
    <!-- Generator: Sketch 59.1 (86144) - https://sketch.com -->
    <title>visa</title>
    <desc>Created with Sketch.</desc>
    <defs>
        <linearGradient x1="45.9741966%" y1="-28.8907748%" x2="54.8768726%" y2="125.847508%" id="linearGradient-1">
            <stop stop-color="#222357" offset="0%"></stop>
            <stop stop-color="#254AA5" offset="100%"></stop>
        </linearGradient>
    </defs>
    <g id="Page-1" stroke="none" stroke-width="1" fill="none" fill-rule="evenodd">
        <g id="visa" transform="translate(0.000000, -7.000000)">
            <rect id="Rectangle" x="0" y="0" width="80" height="70"></rect>
            <path d="M41.3740919,40.7369774 C41.3284488,36.3047999 44.5811063,33.8313016 47.0314097,32.3608129 C49.5489763,30.8518606 50.3945709,29.8843559 50.3849619,28.535175 C50.3657438,26.4699815 48.3766741,25.5586927 46.5149241,25.523188 C43.2670713,25.4610546 41.3788959,26.6031244 39.877485,27.4670736 L38.7075853,20.724128 C40.2138009,19.8690551 43.0028228,19.1234551 45.8951416,19.0909091 C52.6839228,19.0909091 57.1256981,23.2183373 57.1497209,29.6180702 C57.1761456,37.7397839 48.0283469,38.1895108 48.0908053,41.8198724 C48.1124256,42.92052 48.9652275,44.0951358 50.8341841,44.3939674 C51.7590534,44.5448627 54.3126541,44.6602532 57.207375,43.0181581 L58.3436431,49.5421576 C56.7869797,50.2404178 54.7858987,50.9090909 52.2947572,50.9090909 C45.9047506,50.9090909 41.4101256,46.7254468 41.3740919,40.7369774 M69.2619062,50.3469322 C68.0223409,50.3469322 66.9773587,49.4563545 66.5113206,48.0894212 L56.8134044,19.5702233 L63.5973816,19.5702233 L64.9474506,24.1651309 L73.2376434,24.1651309 L74.0207794,19.5702233 L80,19.5702233 L74.7822953,50.3469322 L69.2619062,50.3469322 M70.2107981,42.0329011 L72.1686384,30.4761019 L66.8067984,30.4761019 L70.2107981,42.0329011 M33.1487597,50.3469322 L27.8013333,19.5702233 L34.2658097,19.5702233 L39.6108341,50.3469322 L33.1487597,50.3469322 M23.5853703,50.3469322 L16.8566453,29.3991242 L14.1348868,47.2106785 C13.8153865,49.1989449 12.554201,50.3469322 11.1536845,50.3469322 L0.15374452,50.3469322 L0,49.4533957 C2.25812264,48.8498148 4.82373431,47.8763926 6.37799531,46.8349197 C7.32928953,46.1987928 7.60074469,45.6425515 7.91303825,44.1306405 L13.0682842,19.5702233 L19.9003063,19.5702233 L30.3741517,50.3469322 L23.5853703,50.3469322" id="Shape" fill="url(#linearGradient-1)" fill-rule="nonzero" transform="translate(40.000000, 35.000000) scale(-1, 1) rotate(-180.000000) translate(-40.000000, -35.000000) "></path>
        </g>
    </g>
</svg>